# xmcd
#
# Track frame offsets:
# 150
# 21750
# 41100
# 61350
# 82050
# 104250
# 125325
# 144150
# 166050
# 187875
# 208874
# 224549
# 247556
# 266550
# 287586
# 310691
#
# Disc length: 4403 seconds
#
#
# Revision: 0
# Processed by: cddbd v1.5.2PL0 Copyright (c) Steve Scherf et al.
# Submitted via: FreeRIP 2.951 
#
DISCID=dc113110
DTITLE=张镐哲 - 张镐哲精选
DYEAR=0002
DGENRE=Meditative
TTITLE0=该想的想该忘的忘
TTITLE1=无助
TTITLE2=真实的我
TTITLE3=苦闷
TTITLE4=爱会让人变傻瓜
TTITLE5=赔罪
TTITLE6=多少
TTITLE7=我愿意为你哭
TTITLE8=罚我娶你好不好
TTITLE9=大人要勇敢
TTITLE10=我真的不是故意的
TTITLE11=真感情
TTITLE12=Londy Eyes
TTITLE13=坏导演
TTITLE14=寂寞的时候你最先想起谁
TTITLE15=谋杀寂寞
EXTD=
EXTT0=
EXTT1=
EXTT2=
EXTT3=
EXTT4=
EXTT5=
EXTT6=
EXTT7=
EXTT8=
EXTT9=
EXTT10=
EXTT11=
EXTT12=
EXTT13=
EXTT14=
EXTT15=
PLAYORDER=
